- 
http://www.Speed.Cd      fast  and The Hottest Private Tracker on the net

   signup is open now

Please Seed back to make the speed Faster!!!

------------------nfo--------------------------

[color=blue][size=5][b]DeadHeads.2011.BRRip.XVID.AC3.SeT-CM8.avi[/b][/size][/color]


Source: Deadheads 2011 720p BluRay x264-RSG

Video: 720x400 @bitrate 1798 2pass
Audio: English True HD AC3 640 to AC3 6 Channel @ 320 Kbps
Sample: yes included
Subs: none[/b]


[url]http://www.imdb.com/title/tt1273207/[/url]

Two inexplicably coherent zombies awake amidst a zombie attack and decide to take a road trip 
to find the one's lost love, unaware they are being chased by the agents of a ruthless company 
with it's own agenda. 



Format                           : AVI
Format/Info                      : Audio Video Interleave
File size                        : 1.41 GiB
Duration                         : 1h 34mn
Overall bit rate                 : 2 122 Kbps

Video
ID                               : 0
Format                           : xvid
Codec ID                         : xvid
Duration                         : 1h 34mn
Bit rate                         : 1 798 Kbps
Width                            : 720 pixels
Height                           : 400 pixels
Display aspect ratio             : 16:9
Frame rate                       : 23.976 fps
Bits/(Pixel*Frame)               : 0.260
Stream size                      : 1.19 GiB (85%)

Audio
ID                               : 1
Format                           : AC-3
Format/Info                      : Audio Coding 3
Mode extension                   : CM (complete main)
Codec ID                         : 2000
Duration                         : 1h 33mn
Bit rate mode                    : Constant
Bit rate                         : 320 Kbps
Channel(s)                       : 6 channels
Channel positions                : Front: L C R, Side: L R, LFE
Sampling rate                    : 48.0 KHz
Bit depth                        : 16 bits
Compression mode                 : Lossy
Stream size                      : 213 MiB (15%)
Alignment                        : Aligned on interleaves
Interleave, duration             : 42 ms (1.02 video frame)

Greetz
Everyone, let my people go, give peace a chance and i have a dream.......
Thats right, some of you fighting a war that dont exist, grow up, put your big boy pants on.
All you gossip turds, shut your mouths and know your role and let the groups do there thing.
As for the groups, come on... we are all on the same side right . :)
Great Work Guys :D

LOOKING FOR ANYTHING YOU WANT TO LOOK AND SOUND BETTER

CM8@hushmail.com